# xmcd
#
# Track frame offsets:
#	150
#	12660
#	30237
#	45999
#	58101
#	77574
#	89360
#	114560
#
# Disc length: 1737 seconds
# Revision: 0
# Processed by: cddbd v1.5.2PL0 Copyright (c) Steve Scherf et al.
# Submitted via: dBpowerAMP V12.0
#
DISCID=5706c708
DTITLE=Lonesome River Band - Chronology,  Volume 1
DYEAR=2012
DGENRE=Country
TTITLE0=Close The Door Lightly When You Go
TTITLE1=The Old Man In The Shanty
TTITLE2=Laura Jean
TTITLE3=The Game Is Over
TTITLE4=Mary Ann
TTITLE5=I'm Afraid To Love You Anymore
TTITLE6=Hobo Blues
TTITLE7=Angeline The Baker
EXTD=
EXTT0=
EXTT1=
EXTT2=
EXTT3=
EXTT4=
EXTT5=
EXTT6=
EXTT7=
PLAYORDER=
